<svg width="14" height="12" viewBox="0 0 14 12" fill="none" xmlns="http://www.w3.org/2000/svg">
<path d="M0.75 2.875L5.85307 6.44715C6.26631 6.73641 6.47292 6.88105 6.69766 6.93707C6.89618 6.98655 7.10382 6.98655 7.30234 6.93707C7.52708 6.88105 7.73369 6.73641 8.14692 6.44715L13.25 2.875M3.75 11H10.25C11.3001 11 11.8251 11 12.2262 10.7956C12.579 10.6159 12.8659 10.329 13.0456 9.97623C13.25 9.57515 13.25 9.0501 13.25 8V4C13.25 2.9499 13.25 2.42485 13.0456 2.02377C12.8659 1.67096 12.579 1.38413 12.2262 1.20436C11.8251 1 11.3001 1 10.25 1H3.75C2.6999 1 2.17485 1 1.77377 1.20436C1.42096 1.38413 1.13413 1.67096 0.954363 2.02377C0.75 2.42485 0.75 2.9499 0.75 4V8C0.75 9.0501 0.75 9.57515 0.954363 9.97623C1.13413 10.329 1.42096 10.6159 1.77377 10.7956C2.17485 11 2.6999 11 3.75 11Z" stroke="#1D2939" stroke-width="1.25" stroke-linecap="round" stroke-linejoin="round"/>
</svg>
