<svg width="16" height="18" viewBox="0 0 16 18" fill="none" xmlns="http://www.w3.org/2000/svg">
<path d="M12.375 8V5.375C12.375 2.95875 10.4162 1 8 1C5.58375 1 3.625 2.95875 3.625 5.375V8M5.2 16.75H10.8C12.2701 16.75 13.0052 16.75 13.5667 16.4639C14.0607 16.2122 14.4622 15.8106 14.7139 15.3167C15 14.7552 15 14.0201 15 12.55V12.2C15 10.7299 15 9.99479 14.7139 9.43327C14.4622 8.93935 14.0607 8.53778 13.5667 8.28611C13.0052 8 12.2701 8 10.8 8H5.2C3.72986 8 2.99479 8 2.43327 8.28611C1.93935 8.53778 1.53778 8.93935 1.28611 9.43327C1 9.99479 1 10.7299 1 12.2V12.55C1 14.0201 1 14.7552 1.28611 15.3167C1.53778 15.8106 1.93935 16.2122 2.43327 16.4639C2.99479 16.75 3.72986 16.75 5.2 16.75Z" stroke="#1D2939" stroke-width="1.5" stroke-linecap="round" stroke-linejoin="round"/>
</svg>
